<svg width="84" height="18" viewBox="0 0 84 18" fill="none" xmlns="http://www.w3.org/2000/svg">
<path d="M0.56871 12.2236L0.886535 11.4998C1.10323 11.0077 1.49329 10.8775 1.98448 11.2393C2.92351 11.9341 4.4693 12.4407 6.53516 12.4407C8.29765 12.4407 9.04887 11.992 9.04887 11.4564C9.04887 10.8485 8.42767 10.6893 7.40196 10.559L5.06161 10.2551C2.24452 9.87873 0.828749 8.86554 0.828749 7.09968C0.828749 5.20356 2.37454 3.69824 5.9573 3.69824C7.95093 3.69824 9.23668 4.0022 10.0746 4.32063C10.9992 4.68249 11.1292 4.98645 11.1292 5.73911V6.72335C11.1292 7.33127 10.9125 7.53391 10.3202 7.53391H9.65563C9.04887 7.53391 8.84662 7.3168 8.84662 6.72335V6.40492C8.45656 6.27465 7.48864 6.08649 6.3618 6.08649C4.38262 6.08649 3.42914 6.44834 3.42914 7.05626C3.42914 7.50496 4.007 7.7655 5.06161 7.91024L7.35862 8.2142C10.1324 8.56158 11.6059 9.40108 11.6059 11.4275C11.6059 13.4828 9.65563 14.8 6.174 14.8C3.61695 14.8 1.56553 13.9894 0.742069 13.2367C0.453137 12.9473 0.409797 12.5854 0.56871 12.2236Z" fill="white"/>
<path d="M25.9358 14.6264H24.7511C24.1733 14.6264 23.9855 14.5396 23.6965 14.1053L21.4718 10.8197C21.1539 10.371 20.9083 10.2552 20.2438 10.2552H18.019V13.8158C18.019 14.4238 17.8023 14.6264 17.21 14.6264H16.3577C15.7509 14.6264 15.5486 14.4093 15.5486 13.8158V3.13388H14.7541C14.1473 3.13388 13.9451 2.91677 13.9451 2.32333V1.59962C13.9451 0.991701 14.1618 0.789062 14.7541 0.789062H17.2245C17.8312 0.789062 18.0335 1.00618 18.0335 1.59962V7.85248H20.0271C20.6916 7.85248 20.9228 7.75116 21.2551 7.28798L23.1187 4.40761C23.4221 3.95891 23.6099 3.87207 24.1877 3.87207H25.3723C26.0224 3.87207 26.138 4.39314 25.7769 4.92869L23.6965 8.08406C23.4798 8.38802 23.2198 8.70645 22.9742 8.96699C23.2342 9.1841 23.5954 9.54596 23.7399 9.76307L26.3403 13.5987C26.7014 14.1053 26.5714 14.6264 25.9358 14.6264Z" fill="white"/>
<path d="M30.1631 16.5951V15.8858C30.1631 15.2779 30.3798 15.0753 30.9721 15.0753H31.9978C32.6191 15.0753 32.9224 14.945 33.1536 14.4529L33.2836 14.1779L28.3717 4.87097C28.0684 4.30647 28.314 3.88672 28.9496 3.88672H30.062C30.6399 3.88672 30.8999 3.98804 31.1166 4.40779L33.168 8.63426C33.6448 9.60403 34.1793 10.7185 34.5982 11.6883C35.0316 10.7475 35.5228 9.66193 35.9851 8.7211L38.0799 4.40779C38.2677 4.00251 38.5566 3.88672 39.1345 3.88672H40.2469C40.897 3.88672 41.1281 4.32095 40.8247 4.87097L35.2339 15.5095C34.5838 16.7398 33.847 17.4201 32.1712 17.4201H30.9432C30.3654 17.4201 30.1631 17.203 30.1631 16.5951Z" fill="white"/>
<path d="M55.9316 9.25634C55.9316 12.6723 53.4034 14.8 49.994 14.8C48.5205 14.8 47.3937 14.4381 46.5991 13.9894V16.9132C46.5991 17.5211 46.3824 17.7238 45.7901 17.7238H44.9377C44.331 17.7238 44.1287 17.5066 44.1287 16.9132V6.23123H43.3342C42.7274 6.23123 42.5251 6.01412 42.5251 5.42067V4.69696C42.5251 4.08905 42.7418 3.88641 43.3342 3.88641H45.4145C46.0212 3.88641 46.2235 4.10352 46.2235 4.69696V4.75486C47.0325 4.21931 48.2605 3.69824 49.994 3.69824C53.4034 3.71272 55.9316 5.84043 55.9316 9.25634ZM53.3601 9.25634C53.3601 7.2589 51.7565 6.14438 49.7629 6.14438C48.3327 6.14438 47.1625 6.7523 46.6135 7.24442V11.2827C47.177 11.7749 48.3327 12.3828 49.7629 12.3828C51.7565 12.3683 53.3601 11.2538 53.3601 9.25634Z" fill="white"/>
<path d="M69.3909 8.41799C69.3909 9.0259 69.1742 9.22854 68.5818 9.22854H67.7295C67.1227 9.22854 66.9205 9.05485 66.9205 8.41799C66.9205 6.82582 66.3137 6.11659 64.8691 6.11659C63.4966 6.11659 62.3554 6.97056 61.7197 8.01271V13.8169C61.7197 14.4248 61.503 14.6274 60.9107 14.6274H60.0583C59.4516 14.6274 59.2493 14.4103 59.2493 13.8169V6.23238H58.4548C57.848 6.23238 57.6458 6.01527 57.6458 5.42182V4.69811C57.6458 4.0902 57.8625 3.88756 58.4548 3.88756H60.5351C61.1418 3.88756 61.3441 4.10467 61.3441 4.69811V5.39288C62.1098 4.5389 63.2799 3.71387 65.2736 3.71387C68.1918 3.71387 69.3909 5.45077 69.3909 8.41799Z" fill="white"/>
<path d="M70.9241 9.25749C70.9241 6.07316 73.6111 3.71387 77.1795 3.71387C80.7189 3.71387 83.3915 6.07316 83.3915 9.25749C83.3915 12.4563 80.7044 14.8156 77.1795 14.8156C73.6111 14.8156 70.9241 12.4563 70.9241 9.25749ZM80.9356 9.25749C80.9356 7.40479 79.3031 6.05869 77.1795 6.05869C75.0125 6.05869 73.38 7.41927 73.38 9.25749C73.38 11.1247 75.0125 12.4852 77.1795 12.4852C79.3176 12.4852 80.9356 11.1247 80.9356 9.25749Z" fill="white"/>
</svg>
