<svg width="84" height="18" viewBox="0 0 84 18" fill="none" xmlns="http://www.w3.org/2000/svg">
<path d="M0.56871 12.3437L0.886535 11.62C1.10323 11.1278 1.49329 10.9976 1.98448 11.3594C2.92351 12.0542 4.4693 12.5608 6.53516 12.5608C8.29765 12.5608 9.04887 12.1121 9.04887 11.5765C9.04887 10.9686 8.42767 10.8094 7.40196 10.6791L5.06161 10.3752C2.24452 9.99885 0.828749 8.98565 0.828749 7.2198C0.828749 5.32368 2.37454 3.81836 5.9573 3.81836C7.95093 3.81836 9.23668 4.12232 10.0746 4.44075C10.9992 4.80261 11.1292 5.10656 11.1292 5.85922V6.84347C11.1292 7.45139 10.9125 7.65403 10.3202 7.65403H9.65563C9.04887 7.65403 8.84662 7.43691 8.84662 6.84347V6.52504C8.45656 6.39477 7.48864 6.2066 6.3618 6.2066C4.38262 6.2066 3.42914 6.56846 3.42914 7.17638C3.42914 7.62508 4.007 7.88561 5.06161 8.03035L7.35862 8.33431C10.1324 8.68169 11.6059 9.5212 11.6059 11.5476C11.6059 13.6029 9.65563 14.9201 6.174 14.9201C3.61695 14.9201 1.56553 14.1095 0.742069 13.3569C0.453137 13.0674 0.409797 12.7055 0.56871 12.3437Z" fill="black"/>
<path d="M25.9358 14.7465H24.7511C24.1733 14.7465 23.9855 14.6597 23.6965 14.2255L21.4718 10.9398C21.1539 10.4911 20.9083 10.3753 20.2438 10.3753H18.019V13.936C18.019 14.5439 17.8023 14.7465 17.21 14.7465H16.3577C15.7509 14.7465 15.5486 14.5294 15.5486 13.936V3.254H14.7541C14.1473 3.254 13.9451 3.03689 13.9451 2.44345V1.71974C13.9451 1.11182 14.1618 0.90918 14.7541 0.90918H17.2245C17.8312 0.90918 18.0335 1.12629 18.0335 1.71974V7.97259H20.0271C20.6916 7.97259 20.9228 7.87127 21.2551 7.4081L23.1187 4.52773C23.4221 4.07903 23.6099 3.99219 24.1877 3.99219H25.3723C26.0224 3.99219 26.138 4.51326 25.7769 5.0488L23.6965 8.20418C23.4798 8.50814 23.2198 8.82657 22.9742 9.08711C23.2342 9.30422 23.5954 9.66607 23.7399 9.88319L26.3403 13.7189C26.7014 14.2255 26.5714 14.7465 25.9358 14.7465Z" fill="black"/>
<path d="M30.1631 16.7152V16.006C30.1631 15.398 30.3798 15.1954 30.9721 15.1954H31.9978C32.6191 15.1954 32.9224 15.0651 33.1536 14.573L33.2836 14.298L28.3717 4.99108C28.0684 4.42659 28.314 4.00684 28.9496 4.00684H30.062C30.6399 4.00684 30.8999 4.10816 31.1166 4.52791L33.168 8.75438C33.6448 9.72415 34.1793 10.8387 34.5982 11.8084C35.0316 10.8676 35.5228 9.78205 35.9851 8.84122L38.0799 4.52791C38.2677 4.12263 38.5566 4.00684 39.1345 4.00684H40.2469C40.897 4.00684 41.1281 4.44106 40.8247 4.99108L35.2339 15.6296C34.5838 16.8599 33.847 17.5402 32.1712 17.5402H30.9432C30.3654 17.5402 30.1631 17.3231 30.1631 16.7152Z" fill="black"/>
<path d="M55.9316 9.37646C55.9316 12.7924 53.4034 14.9201 49.994 14.9201C48.5205 14.9201 47.3937 14.5582 46.5991 14.1095V17.0333C46.5991 17.6412 46.3824 17.8439 45.7901 17.8439H44.9377C44.331 17.8439 44.1287 17.6268 44.1287 17.0333V6.35135H43.3342C42.7274 6.35135 42.5251 6.13423 42.5251 5.54079V4.81708C42.5251 4.20916 42.7418 4.00652 43.3342 4.00652H45.4145C46.0212 4.00652 46.2235 4.22364 46.2235 4.81708V4.87498C47.0325 4.33943 48.2605 3.81836 49.994 3.81836C53.4034 3.83283 55.9316 5.96054 55.9316 9.37646ZM53.3601 9.37646C53.3601 7.37901 51.7565 6.2645 49.7629 6.2645C48.3327 6.2645 47.1625 6.87242 46.6135 7.36454V11.4028C47.177 11.895 48.3327 12.5029 49.7629 12.5029C51.7565 12.4884 53.3601 11.3739 53.3601 9.37646Z" fill="black"/>
<path d="M69.3909 8.5381C69.3909 9.14602 69.1742 9.34866 68.5818 9.34866H67.7295C67.1227 9.34866 66.9205 9.17497 66.9205 8.5381C66.9205 6.94594 66.3137 6.2367 64.8691 6.2367C63.4966 6.2367 62.3554 7.09068 61.7197 8.13282V13.937C61.7197 14.5449 61.503 14.7475 60.9107 14.7475H60.0583C59.4516 14.7475 59.2493 14.5304 59.2493 13.937V6.3525H58.4548C57.848 6.3525 57.6458 6.13538 57.6458 5.54194V4.81823C57.6458 4.21031 57.8625 4.00767 58.4548 4.00767H60.5351C61.1418 4.00767 61.3441 4.22479 61.3441 4.81823V5.51299C62.1098 4.65901 63.2799 3.83398 65.2736 3.83398C68.1918 3.83398 69.3909 5.57089 69.3909 8.5381Z" fill="black"/>
<path d="M70.9241 9.37761C70.9241 6.19328 73.6111 3.83398 77.1795 3.83398C80.7189 3.83398 83.3915 6.19328 83.3915 9.37761C83.3915 12.5764 80.7044 14.9357 77.1795 14.9357C73.6111 14.9357 70.9241 12.5764 70.9241 9.37761ZM80.9356 9.37761C80.9356 7.52491 79.3031 6.17881 77.1795 6.17881C75.0125 6.17881 73.38 7.53938 73.38 9.37761C73.38 11.2448 75.0125 12.6054 77.1795 12.6054C79.3176 12.6054 80.9356 11.2448 80.9356 9.37761Z" fill="black"/>
</svg>
